<svg width="67" height="57" viewBox="0 0 67 57" fill="none" xmlns="http://www.w3.org/2000/svg">
<path d="M14.2105 10.8815L25.3735 18.9682C25.8887 19.4439 26.7474 19.4439 27.2626 19.1268C27.9495 18.8096 28.1213 18.1754 28.1213 17.5411L26.0604 4.53899C26.0604 4.22186 25.7169 3.74617 25.3735 3.58761L21.9387 0.892045C21.2517 0.257794 20.0496 0.416357 19.5344 1.05061C18.8474 1.68486 19.0192 2.7948 19.7061 3.27049L22.6257 5.49036L23.9996 13.8942L16.7866 8.66162L16.0996 5.17324C15.9279 4.38042 15.0692 3.74617 14.2105 3.90474C13.3518 4.0633 12.6649 4.85611 12.8366 5.64893L13.5236 9.77156C13.6953 10.4058 13.867 10.7229 14.2105 10.8815ZM2.87582 30.5433C2.01713 30.2262 0.986707 30.7018 0.643232 31.4947C0.299756 32.2875 0.814969 33.2388 1.67366 33.556L5.9671 34.983C6.13884 34.983 6.31057 35.1416 6.65405 35.1416C6.82579 35.1416 7.16926 35.1416 7.341 34.983L20.5648 30.0676C21.2518 29.7505 21.5952 29.2748 21.5952 28.6405C21.5952 28.0063 21.2518 27.372 20.5648 27.2135L7.16926 22.298C6.82579 22.1395 6.31058 22.1395 5.9671 22.298L1.67366 23.7251C0.814969 24.0422 0.299756 24.9936 0.643232 25.7864C0.986707 26.5792 2.01713 27.0549 2.87582 26.7378L6.48231 25.4693L15.0692 28.6405L6.48231 31.8118L2.87582 30.5433ZM26.2321 52.7421L28.1213 39.7399C28.293 39.1057 27.9495 38.4714 27.2626 38.1543C26.5756 37.8372 25.8887 37.8372 25.3735 38.3128L14.2105 46.3996C13.867 46.7167 13.6953 47.0338 13.5236 47.3509L12.8366 51.4736C12.6649 52.2664 13.3518 53.2177 14.2105 53.2177C15.0692 53.3763 16.0996 52.7421 16.0996 51.9492L16.7866 48.4609L23.9996 43.2283L22.6257 51.6321L19.7061 53.852C19.0192 54.4862 18.8474 55.4376 19.5344 56.0719C20.2213 56.7061 21.2517 56.8647 21.9387 56.2304L25.3735 53.5349C25.8887 53.5349 26.0604 53.0592 26.2321 52.7421ZM52.3363 46.3996L41.1733 38.1543C39.9712 37.3615 38.2538 38.3129 38.4255 39.5814L40.4864 52.5835C40.4864 52.9006 40.8298 53.3763 41.1733 53.5349L44.6081 56.2304C45.295 56.8647 46.4972 56.7061 47.0124 56.0719C47.6994 55.4376 47.5276 54.3277 46.8407 53.852L43.9211 51.6321L42.5472 43.2283L49.7602 48.4609L50.4472 51.9492C50.6189 52.9006 51.4776 53.3763 52.3363 53.2177C53.195 53.0592 53.8819 52.2664 53.7102 51.4736L53.0232 47.3509C52.8515 46.8752 52.6797 46.5581 52.3363 46.3996ZM63.671 26.7378C64.5296 27.0549 65.5601 26.5792 65.9035 25.7864C66.247 24.9936 65.7318 24.0422 64.8731 23.7251L60.5797 22.298C60.2362 22.1395 59.721 22.1395 59.3775 22.298L46.1537 27.2135C45.4668 27.5306 45.1233 28.0063 45.1233 28.6405C45.1233 29.2748 45.4668 29.909 46.1537 30.0676L59.3775 34.983C59.721 35.1416 60.2362 35.1416 60.5797 34.983L64.8731 33.556C65.7318 33.2388 66.247 32.2875 65.9035 31.4947C65.5601 30.7018 64.5296 30.2262 63.671 30.5433L60.0645 31.8118L51.4776 28.6405L60.0645 25.4693L63.671 26.7378ZM40.3146 4.53899L38.4255 17.5411C38.2538 18.1754 38.5973 18.8096 39.2842 19.1268C39.7994 19.4439 40.6581 19.4439 41.1733 18.9682L52.3363 10.8815C52.6797 10.5644 52.8515 10.2472 53.0232 9.93012L53.7102 5.80749C53.8819 5.01468 53.195 4.0633 52.3363 4.0633C51.4776 3.90474 50.4472 4.53899 50.4472 5.3318L49.7602 8.82018L42.5472 14.0528L43.9211 5.64893L46.8407 3.42905C47.5276 2.7948 47.6994 1.84342 47.0124 1.20917C46.3255 0.574919 45.295 0.416357 44.6081 1.05061L41.1733 3.74617C40.6581 3.74617 40.4864 4.22186 40.3146 4.53899Z" fill="#0872BF"/>
</svg>
